<svg width="87" height="22" viewBox="0 0 87 22" fill="none" xmlns="http://www.w3.org/2000/svg">
<path d="M6.91603 21.532C5.23603 21.532 3.7707 21.14 2.52003 20.356C1.28803 19.5534 0.448033 18.48 3.32519e-05 17.136L3.08003 15.68C3.47203 16.5014 4.00403 17.1454 4.67603 17.612C5.34803 18.0787 6.0947 18.312 6.91603 18.312C7.51337 18.312 7.9707 18.1907 8.28803 17.948C8.60537 17.7054 8.76403 17.3694 8.76403 16.94C8.76403 16.716 8.70803 16.5294 8.59603 16.38C8.48403 16.212 8.31603 16.0627 8.09203 15.932C7.86803 15.8014 7.58803 15.6894 7.25203 15.596L4.64803 14.868C3.39737 14.5134 2.43603 13.944 1.76403 13.16C1.09203 12.3574 0.756033 11.4147 0.756033 10.332C0.756033 9.38004 0.9987 8.54938 1.48403 7.84004C1.96937 7.13071 2.6507 6.58004 3.52803 6.18804C4.40537 5.77738 5.41337 5.57204 6.55203 5.57204C8.04537 5.57204 9.35203 5.92671 10.472 6.63604C11.6107 7.32671 12.4134 8.30671 12.88 9.57604L9.77203 11.032C9.54803 10.3974 9.13737 9.89338 8.54003 9.52004C7.96137 9.12804 7.2987 8.93204 6.55203 8.93204C6.0107 8.93204 5.58137 9.04404 5.26403 9.26804C4.96537 9.49204 4.81603 9.80004 4.81603 10.192C4.81603 10.3974 4.87203 10.584 4.98403 10.752C5.09603 10.92 5.27337 11.0694 5.51603 11.2C5.77737 11.3307 6.0947 11.452 6.46803 11.564L8.90403 12.292C10.1734 12.6654 11.144 13.2347 11.816 14C12.488 14.7467 12.824 15.6707 12.824 16.772C12.824 17.724 12.572 18.5547 12.068 19.264C11.5827 19.9734 10.9014 20.5334 10.024 20.944C9.1467 21.336 8.1107 21.532 6.91603 21.532ZM15.3342 21.196V4.41074e-05H19.5342V13.58L17.9662 13.076L24.7142 5.90804H29.8942L24.3502 12.068L29.8662 21.196H25.1062L20.4862 13.44L22.9222 12.824L18.2462 17.92L19.5342 15.484V21.196H15.3342ZM31.7404 21.196V5.90804H35.9404V21.196H31.7404ZM31.7404 4.53604V0.336043H35.9404V4.53604H31.7404ZM39.0139 21.196V4.41074e-05H43.2139V21.196H39.0139ZM46.2873 21.196V4.41074e-05H50.4873V21.196H46.2873ZM60.9248 21.532C59.3008 21.532 57.8914 21.1774 56.6968 20.468C55.5021 19.74 54.5781 18.7694 53.9248 17.556C53.2714 16.3427 52.9448 14.9987 52.9448 13.524C52.9448 11.9934 53.2808 10.6307 53.9528 9.43604C54.6434 8.24138 55.5674 7.29871 56.7248 6.60804C57.8821 5.91738 59.1888 5.57204 60.6448 5.57204C61.8581 5.57204 62.9314 5.76804 63.8648 6.16004C64.7981 6.53338 65.5821 7.06538 66.2168 7.75604C66.8701 8.44671 67.3648 9.24938 67.7008 10.164C68.0368 11.06 68.2048 12.04 68.2048 13.104C68.2048 13.4027 68.1861 13.7014 68.1488 14C68.1301 14.28 68.0834 14.5227 68.0088 14.728H56.5568V11.648H65.6288L63.6408 13.104C63.8274 12.3014 63.8181 11.592 63.6128 10.976C63.4074 10.3414 63.0434 9.84671 62.5208 9.49204C62.0168 9.11871 61.3914 8.93204 60.6448 8.93204C59.9168 8.93204 59.2914 9.10938 58.7688 9.46404C58.2461 9.81871 57.8541 10.3414 57.5928 11.032C57.3314 11.7227 57.2288 12.5627 57.2848 13.552C57.2101 14.4107 57.3128 15.1667 57.5928 15.82C57.8728 16.4734 58.3021 16.9867 58.8808 17.36C59.4594 17.7147 60.1594 17.892 60.9808 17.892C61.7274 17.892 62.3621 17.7427 62.8848 17.444C63.4261 17.1454 63.8461 16.7347 64.1448 16.212L67.5048 17.808C67.2061 18.5547 66.7301 19.208 66.0768 19.768C65.4421 20.328 64.6861 20.7667 63.8088 21.084C62.9314 21.3827 61.9701 21.532 60.9248 21.532ZM77.8739 21.532C76.3806 21.532 75.0459 21.1774 73.8699 20.468C72.6939 19.7587 71.7606 18.7974 71.0699 17.584C70.3979 16.3707 70.0619 15.0267 70.0619 13.552C70.0619 12.0587 70.4073 10.7147 71.0979 9.52004C71.7886 8.30671 72.7219 7.34538 73.8979 6.63604C75.0739 5.92671 76.3899 5.57204 77.8459 5.57204C78.9659 5.57204 79.9553 5.78671 80.8139 6.21604C81.6913 6.62671 82.3819 7.21471 82.8859 7.98004L82.2419 8.82004V4.41074e-05H86.4419V21.196H82.5219V18.396L82.9139 19.264C82.3913 20.0107 81.6819 20.58 80.7859 20.972C79.8899 21.3454 78.9193 21.532 77.8739 21.532ZM78.3779 17.752C79.1433 17.752 79.8153 17.5747 80.3939 17.22C80.9726 16.8654 81.4206 16.3707 81.7379 15.736C82.0739 15.1014 82.2419 14.3734 82.2419 13.552C82.2419 12.7307 82.0739 12.0027 81.7379 11.368C81.4206 10.7334 80.9726 10.2387 80.3939 9.88404C79.8153 9.52938 79.1433 9.35204 78.3779 9.35204C77.6126 9.35204 76.9219 9.53871 76.3059 9.91204C75.7086 10.2667 75.2419 10.7614 74.9059 11.396C74.5699 12.012 74.4019 12.7307 74.4019 13.552C74.4019 14.3734 74.5699 15.1014 74.9059 15.736C75.2419 16.3707 75.7086 16.8654 76.3059 17.22C76.9219 17.5747 77.6126 17.752 78.3779 17.752Z" fill="#FCFCFF"/>
</svg>
